<svg xmlns="http://www.w3.org/2000/svg" height="40" viewBox="0 96 960 960" width="40"><path d="M480.667 1027.33 346 896H160V710L26.667 576 160 442V256h186l134.667-133.333L614 256h186v186l133.333 134L800 710v186H614l-133.333 131.33Zm0-197.996q105.333 0 179-74.084 73.667-74.083 73.667-179.917 0-105.278-73.695-178.972-73.694-73.695-178.972-73.695v506.668Zm0 104.667 105.278-104.667h147.389V682l106-106-106-106V322.666H586l-105.333-106-106.667 106H226.666V470l-106 106 106 106v147.334h146.667l107.334 104.667ZM480 575.333Z"/></svg>